<svg xmlns="http://www.w3.org/2000/svg" viewBox="0 0 250 250" width="100%" height="100%">
  <polygon points="125,30 125,30 125,30 31.9,63.2 46.1,186.3 125,230 125,230 125,230 203.9,186.3 218.1,63.2" fill="#DD0031" />
  <polygon points="125,30 125,230 125,230 203.9,186.3 218.1,63.2" fill="#C3002F" />
  <polygon points="125,52.9 125,52.9 125,52.9 66.8,182.6 91.7,182.6 103.1,152.2 146.9,152.2 158.3,182.6 183.2,182.6" fill="#F2F2F2" />
  <polygon points="125,52.9 125,182.6 125,182.6 158.3,182.6 183.2,182.6 125,52.9" fill="#FFFFFF" />
  <polygon points="125,79.5 125,79.5 125,79.5 110.7,117.8 139.3,117.8" fill="#F2F2F2" />
  <polygon points="125,79.5 125,117.8 139.3,117.8" fill="#FFFFFF" />
</svg>
